{
	"asset":{
		"generator":"Khronos glTF Blender I/O v4.1.62",
		"version":"2.0"
	},
	"scene":0,
	"scenes":[
		{
			"name":"Scene",
			"nodes":[
				0,
				1,
				2
			]
		}
	],
	"nodes":[
		{
			"mesh":0,
			"name":"Cube.001",
			"scale":[
				4.333125591278076,
				5.5440826416015625,
				5.5440826416015625
			],
			"translation":[
				-107.3216323852539,
				22.940204620361328,
				-109.35026550292969
			]
		},
		{
			"mesh":1,
			"name":"Text",
			"rotation":[
				-0.008874396793544292,
				-0.6519902944564819,
				-0.7581369876861572,
				0.007631893269717693
			],
			"scale":[
				-24.89944839477539,
				-24.89944839477539,
				-24.899450302124023
			],
			"translation":[
				-184.99984741210938,
				65.29169464111328,
				-89.75489807128906
			]
		},
		{
			"mesh":2,
			"name":"Text.001",
			"rotation":[
				-0.008874396793544292,
				-0.6519902944564819,
				-0.7581369876861572,
				0.007631893269717693
			],
			"scale":[
				-24.89944839477539,
				-24.89944839477539,
				-24.899450302124023
			],
			"translation":[
				28.506027221679688,
				65.29169464111328,
				9.634880065917969
			]
		}
	],
	"materials":[
		{
			"doubleSided":true,
			"name":"Material.002",
			"pbrMetallicRoughness":{
				"baseColorFactor":[
					0.003849917557090521,
					0,
					0.8002997636795044,
					1
				],
				"metallicFactor":0,
				"roughnessFactor":0.5
			}
		},
		{
			"doubleSided":true,
			"name":"Material.001",
			"pbrMetallicRoughness":{
				"baseColorFactor":[
					0.0818004459142685,
					0.0818004459142685,
					0.0818004459142685,
					1
				],
				"metallicFactor":0,
				"roughnessFactor":0.5
			}
		},
		{
			"doubleSided":true,
			"name":"Material",
			"pbrMetallicRoughness":{
				"baseColorFactor":[
					0,
					0.009243101812899113,
					0.8001105785369873,
					1
				],
				"metallicFactor":0,
				"roughnessFactor":0.5
			}
		},
		{
			"doubleSided":true,
			"name":"Material.005",
			"pbrMetallicRoughness":{
				"baseColorFactor":[
					0.8001489639282227,
					0.47000986337661743,
					0.02296370454132557,
					1
				],
				"metallicFactor":0,
				"roughnessFactor":0.5
			}
		},
		{
			"doubleSided":true,
			"name":"Material.003",
			"pbrMetallicRoughness":{
				"baseColorFactor":[
					0.004695982672274113,
					0,
					0.8002911806106567,
					1
				],
				"metallicFactor":0,
				"roughnessFactor":0.5
			}
		},
		{
			"doubleSided":true,
			"name":"Material.004",
			"pbrMetallicRoughness":{
				"baseColorFactor":[
					0.004695982672274113,
					0,
					0.8002911806106567,
					1
				],
				"metallicFactor":0,
				"roughnessFactor":0.5
			}
		}
	],
	"meshes":[
		{
			"name":"Cube.002",
			"primitives":[
				{
					"attributes":{
						"POSITION":0,
						"NORMAL":1,
						"TEXCOORD_0":2
					},
					"indices":3,
					"material":0
				},
				{
					"attributes":{
						"POSITION":4,
						"NORMAL":5,
						"TEXCOORD_0":6
					},
					"indices":7,
					"material":1
				},
				{
					"attributes":{
						"POSITION":8,
						"NORMAL":9,
						"TEXCOORD_0":10
					},
					"indices":11,
					"material":2
				},
				{
					"attributes":{
						"POSITION":12,
						"NORMAL":13,
						"TEXCOORD_0":14
					},
					"indices":15,
					"material":3
				}
			]
		},
		{
			"name":"Text",
			"primitives":[
				{
					"attributes":{
						"POSITION":16,
						"NORMAL":17,
						"TEXCOORD_0":18
					},
					"indices":19,
					"material":4
				}
			]
		},
		{
			"name":"Text.001",
			"primitives":[
				{
					"attributes":{
						"POSITION":20,
						"NORMAL":21,
						"TEXCOORD_0":22
					},
					"indices":23,
					"material":5
				}
			]
		}
	],
	"accessors":[
		{
			"bufferView":0,
			"componentType":5126,
			"count":151,
			"max":[
				37.48557662963867,
				6.14665412902832,
				22.59958839416504
			],
			"min":[
				-8.06888484954834,
				-1,
				-1
			],
			"type":"VEC3"
		},
		{
			"bufferView":1,
			"componentType":5126,
			"count":151,
			"type":"VEC3"
		},
		{
			"bufferView":2,
			"componentType":5126,
			"count":151,
			"type":"VEC2"
		},
		{
			"bufferView":3,
			"componentType":5123,
			"count":276,
			"type":"SCALAR"
		},
		{
			"bufferView":4,
			"componentType":5126,
			"count":24,
			"max":[
				1.5450869798660278,
				-0.960851788520813,
				2.129978656768799
			],
			"min":[
				-2.373887062072754,
				-2.4969687461853027,
				-6.453360080718994
			],
			"type":"VEC3"
		},
		{
			"bufferView":5,
			"componentType":5126,
			"count":24,
			"type":"VEC3"
		},
		{
			"bufferView":6,
			"componentType":5126,
			"count":24,
			"type":"VEC2"
		},
		{
			"bufferView":7,
			"componentType":5123,
			"count":36,
			"type":"SCALAR"
		},
		{
			"bufferView":8,
			"componentType":5126,
			"count":2500,
			"max":[
				38.43050765991211,
				-1.0491507053375244,
				28.920982360839844
			],
			"min":[
				-5.781490325927734,
				-2.9571774005889893,
				-6.288071632385254
			],
			"type":"VEC3"
		},
		{
			"bufferView":9,
			"componentType":5126,
			"count":2500,
			"type":"VEC3"
		},
		{
			"bufferView":10,
			"componentType":5126,
			"count":2500,
			"type":"VEC2"
		},
		{
			"bufferView":11,
			"componentType":5123,
			"count":14406,
			"type":"SCALAR"
		},
		{
			"bufferView":12,
			"componentType":5126,
			"count":160,
			"max":[
				40.92570495605469,
				-0.8664950132369995,
				16.753276824951172
			],
			"min":[
				-6.313198089599609,
				-3.8861069679260254,
				-17.20205307006836
			],
			"type":"VEC3"
		},
		{
			"bufferView":13,
			"componentType":5126,
			"count":160,
			"type":"VEC3"
		},
		{
			"bufferView":14,
			"componentType":5126,
			"count":160,
			"type":"VEC2"
		},
		{
			"bufferView":15,
			"componentType":5123,
			"count":486,
			"type":"SCALAR"
		},
		{
			"bufferView":16,
			"componentType":5126,
			"count":939,
			"max":[
				5.736000061035156,
				0,
				0.009000000543892384
			],
			"min":[
				0.04000000283122063,
				0,
				-0.6910000443458557
			],
			"type":"VEC3"
		},
		{
			"bufferView":17,
			"componentType":5126,
			"count":939,
			"type":"VEC3"
		},
		{
			"bufferView":18,
			"componentType":5126,
			"count":939,
			"type":"VEC2"
		},
		{
			"bufferView":19,
			"componentType":5123,
			"count":2754,
			"type":"SCALAR"
		},
		{
			"bufferView":20,
			"componentType":5126,
			"count":1091,
			"max":[
				5.693000793457031,
				0,
				0.009000000543892384
			],
			"min":[
				0.05000000074505806,
				0,
				-0.6914074420928955
			],
			"type":"VEC3"
		},
		{
			"bufferView":21,
			"componentType":5126,
			"count":1091,
			"type":"VEC3"
		},
		{
			"bufferView":22,
			"componentType":5126,
			"count":1091,
			"type":"VEC2"
		},
		{
			"bufferView":23,
			"componentType":5123,
			"count":3225,
			"type":"SCALAR"
		}
	],
	"bufferViews":[
		{
			"buffer":0,
			"byteLength":1812,
			"byteOffset":0,
			"target":34962
		},
		{
			"buffer":0,
			"byteLength":1812,
			"byteOffset":1812,
			"target":34962
		},
		{
			"buffer":0,
			"byteLength":1208,
			"byteOffset":3624,
			"target":34962
		},
		{
			"buffer":0,
			"byteLength":552,
			"byteOffset":4832,
			"target":34963
		},
		{
			"buffer":0,
			"byteLength":288,
			"byteOffset":5384,
			"target":34962
		},
		{
			"buffer":0,
			"byteLength":288,
			"byteOffset":5672,
			"target":34962
		},
		{
			"buffer":0,
			"byteLength":192,
			"byteOffset":5960,
			"target":34962
		},
		{
			"buffer":0,
			"byteLength":72,
			"byteOffset":6152,
			"target":34963
		},
		{
			"buffer":0,
			"byteLength":30000,
			"byteOffset":6224,
			"target":34962
		},
		{
			"buffer":0,
			"byteLength":30000,
			"byteOffset":36224,
			"target":34962
		},
		{
			"buffer":0,
			"byteLength":20000,
			"byteOffset":66224,
			"target":34962
		},
		{
			"buffer":0,
			"byteLength":28812,
			"byteOffset":86224,
			"target":34963
		},
		{
			"buffer":0,
			"byteLength":1920,
			"byteOffset":115036,
			"target":34962
		},
		{
			"buffer":0,
			"byteLength":1920,
			"byteOffset":116956,
			"target":34962
		},
		{
			"buffer":0,
			"byteLength":1280,
			"byteOffset":118876,
			"target":34962
		},
		{
			"buffer":0,
			"byteLength":972,
			"byteOffset":120156,
			"target":34963
		},
		{
			"buffer":0,
			"byteLength":11268,
			"byteOffset":121128,
			"target":34962
		},
		{
			"buffer":0,
			"byteLength":11268,
			"byteOffset":132396,
			"target":34962
		},
		{
			"buffer":0,
			"byteLength":7512,
			"byteOffset":143664,
			"target":34962
		},
		{
			"buffer":0,
			"byteLength":5508,
			"byteOffset":151176,
			"target":34963
		},
		{
			"buffer":0,
			"byteLength":13092,
			"byteOffset":156684,
			"target":34962
		},
		{
			"buffer":0,
			"byteLength":13092,
			"byteOffset":169776,
			"target":34962
		},
		{
			"buffer":0,
			"byteLength":8728,
			"byteOffset":182868,
			"target":34962
		},
		{
			"buffer":0,
			"byteLength":6450,
			"byteOffset":191596,
			"target":34963
		}
	],
	"buffers":[
		{
			"byteLength":198048,
			"uri":"Geoid%20Surface.bin"
		}
	]
}
