{
	"asset":{
		"generator":"Khronos glTF Blender I/O v4.1.62",
		"version":"2.0"
	},
	"scene":0,
	"scenes":[
		{
			"name":"Scene",
			"nodes":[
				0,
				1,
				2,
				3
			]
		}
	],
	"nodes":[
		{
			"mesh":0,
			"name":"Sphere",
			"translation":[
				0,
				2.6909711360931396,
				0
			]
		},
		{
			"mesh":1,
			"name":"Cube",
			"rotation":[
				0,
				0,
				0.9769590497016907,
				0.21342700719833374
			],
			"scale":[
				-0.057116515934467316,
				-0.1169160008430481,
				-0.06160265952348709
			],
			"translation":[
				0.5147881507873535,
				3.5577573776245117,
				0.27490729093551636
			]
		},
		{
			"mesh":2,
			"name":"Cube.001",
			"rotation":[
				0,
				0,
				0.9033955335617065,
				0.4288085103034973
			],
			"scale":[
				-0.05711652338504791,
				-0.1169160008430481,
				-0.06160265952348709
			],
			"translation":[
				0.7635864019393921,
				3.205732822418213,
				0.5005479454994202
			]
		},
		{
			"mesh":3,
			"name":"Cube.002",
			"rotation":[
				0.5492261052131653,
				0.40844446420669556,
				0.5954238176345825,
				0.42070692777633667
			],
			"scale":[
				-0.057116519659757614,
				-0.1169160008430481,
				-0.06160265952348709
			],
			"translation":[
				0.2085423469543457,
				2.9703094959259033,
				-0.9911313056945801
			]
		}
	],
	"materials":[
		{
			"doubleSided":true,
			"name":"Material.001",
			"pbrMetallicRoughness":{
				"baseColorTexture":{
					"index":0
				},
				"metallicFactor":0,
				"roughnessFactor":0.5
			}
		}
	],
	"meshes":[
		{
			"name":"Sphere",
			"primitives":[
				{
					"attributes":{
						"POSITION":0,
						"NORMAL":1,
						"TEXCOORD_0":2
					},
					"indices":3,
					"material":0
				}
			]
		},
		{
			"name":"Cube",
			"primitives":[
				{
					"attributes":{
						"POSITION":4,
						"NORMAL":5,
						"TEXCOORD_0":6
					},
					"indices":7
				}
			]
		},
		{
			"name":"Cube.001",
			"primitives":[
				{
					"attributes":{
						"POSITION":8,
						"NORMAL":9,
						"TEXCOORD_0":10
					},
					"indices":7
				}
			]
		},
		{
			"name":"Cube.002",
			"primitives":[
				{
					"attributes":{
						"POSITION":11,
						"NORMAL":12,
						"TEXCOORD_0":13
					},
					"indices":7
				}
			]
		}
	],
	"textures":[
		{
			"sampler":0,
			"source":0
		}
	],
	"images":[
		{
			"mimeType":"image/png",
			"name":"Topography Colour",
			"uri":"Topography%20Surface/Topography%20Colour.png"
		}
	],
	"accessors":[
		{
			"bufferView":0,
			"componentType":5126,
			"count":1984,
			"max":[
				0.9807851314544678,
				1,
				0.9999993443489075
			],
			"min":[
				-0.9807848334312439,
				-1,
				-0.960742175579071
			],
			"type":"VEC3"
		},
		{
			"bufferView":1,
			"componentType":5126,
			"count":1984,
			"type":"VEC3"
		},
		{
			"bufferView":2,
			"componentType":5126,
			"count":1984,
			"type":"VEC2"
		},
		{
			"bufferView":3,
			"componentType":5123,
			"count":2880,
			"type":"SCALAR"
		},
		{
			"bufferView":4,
			"componentType":5126,
			"count":24,
			"max":[
				1,
				1,
				1
			],
			"min":[
				-1,
				-1,
				-1
			],
			"type":"VEC3"
		},
		{
			"bufferView":5,
			"componentType":5126,
			"count":24,
			"type":"VEC3"
		},
		{
			"bufferView":6,
			"componentType":5126,
			"count":24,
			"type":"VEC2"
		},
		{
			"bufferView":7,
			"componentType":5123,
			"count":36,
			"type":"SCALAR"
		},
		{
			"bufferView":8,
			"componentType":5126,
			"count":24,
			"max":[
				1,
				1,
				1
			],
			"min":[
				-1,
				-1,
				-1
			],
			"type":"VEC3"
		},
		{
			"bufferView":9,
			"componentType":5126,
			"count":24,
			"type":"VEC3"
		},
		{
			"bufferView":10,
			"componentType":5126,
			"count":24,
			"type":"VEC2"
		},
		{
			"bufferView":11,
			"componentType":5126,
			"count":24,
			"max":[
				1,
				1,
				1
			],
			"min":[
				-1,
				-1,
				-1
			],
			"type":"VEC3"
		},
		{
			"bufferView":12,
			"componentType":5126,
			"count":24,
			"type":"VEC3"
		},
		{
			"bufferView":13,
			"componentType":5126,
			"count":24,
			"type":"VEC2"
		}
	],
	"bufferViews":[
		{
			"buffer":0,
			"byteLength":23808,
			"byteOffset":0,
			"target":34962
		},
		{
			"buffer":0,
			"byteLength":23808,
			"byteOffset":23808,
			"target":34962
		},
		{
			"buffer":0,
			"byteLength":15872,
			"byteOffset":47616,
			"target":34962
		},
		{
			"buffer":0,
			"byteLength":5760,
			"byteOffset":63488,
			"target":34963
		},
		{
			"buffer":0,
			"byteLength":288,
			"byteOffset":69248,
			"target":34962
		},
		{
			"buffer":0,
			"byteLength":288,
			"byteOffset":69536,
			"target":34962
		},
		{
			"buffer":0,
			"byteLength":192,
			"byteOffset":69824,
			"target":34962
		},
		{
			"buffer":0,
			"byteLength":72,
			"byteOffset":70016,
			"target":34963
		},
		{
			"buffer":0,
			"byteLength":288,
			"byteOffset":70088,
			"target":34962
		},
		{
			"buffer":0,
			"byteLength":288,
			"byteOffset":70376,
			"target":34962
		},
		{
			"buffer":0,
			"byteLength":192,
			"byteOffset":70664,
			"target":34962
		},
		{
			"buffer":0,
			"byteLength":288,
			"byteOffset":70856,
			"target":34962
		},
		{
			"buffer":0,
			"byteLength":288,
			"byteOffset":71144,
			"target":34962
		},
		{
			"buffer":0,
			"byteLength":192,
			"byteOffset":71432,
			"target":34962
		}
	],
	"samplers":[
		{
			"magFilter":9729,
			"minFilter":9987
		}
	],
	"buffers":[
		{
			"byteLength":71624,
			"uri":"Topography%20Surface%20Nicers.bin"
		}
	]
}
