{
	"asset":{
		"generator":"Khronos glTF Blender I/O v4.1.62",
		"version":"2.0"
	},
	"extensionsUsed":[
		"KHR_materials_specular",
		"KHR_materials_ior"
	],
	"scene":0,
	"scenes":[
		{
			"name":"Scene",
			"nodes":[
				4,
				5,
				6,
				7
			]
		}
	],
	"nodes":[
		{
			"mesh":0,
			"name":"Sphere_Material.002_0",
			"scale":[
				0.4285811185836792,
				0.4285811483860016,
				0.4285811483860016
			],
			"translation":[
				0,
				0,
				0.48409512639045715
			]
		},
		{
			"children":[
				0
			],
			"name":"Sphere",
			"rotation":[
				-0.70710688829422,
				0,
				0,
				0.7071066498756409
			],
			"scale":[
				100,
				99.99999237060547,
				99.99999237060547
			]
		},
		{
			"children":[
				1
			],
			"name":"RootNode"
		},
		{
			"children":[
				2
			],
			"name":"8a888f66473549c99c3f97fb5030482f.fbx",
			"rotation":[
				0.70710688829422,
				0,
				0,
				0.7071066498756409
			]
		},
		{
			"children":[
				3
			],
			"name":"Sketchfab_model",
			"rotation":[
				-0.70710688829422,
				0,
				0,
				0.7071066498756409
			]
		},
		{
			"mesh":1,
			"name":"Sphere.001",
			"scale":[
				41.354408264160156,
				32.6711540222168,
				32.6711540222168
			],
			"translation":[
				0,
				48.86061477661133,
				128.37353515625
			]
		},
		{
			"mesh":2,
			"name":"Cube.005",
			"rotation":[
				-0.6460003852844238,
				0.26288971304893494,
				-0.6841675043106079,
				0.21327757835388184
			],
			"scale":[
				3.5276336669921875,
				3.527634620666504,
				3.5276341438293457
			],
			"translation":[
				0.054828643798828125,
				119.4063720703125,
				178.6046600341797
			]
		},
		{
			"mesh":3,
			"name":"Text",
			"rotation":[
				0.45588231086730957,
				0.5629794001579285,
				-0.4338267743587494,
				0.5357425212860107
			],
			"scale":[
				67.03997039794922,
				67.03997039794922,
				67.03997039794922
			],
			"translation":[
				-0.37375450134277344,
				137.96017456054688,
				228.11373901367188
			]
		}
	],
	"materials":[
		{
			"doubleSided":true,
			"extensions":{
				"KHR_materials_specular":{
					"specularColorFactor":[
						0.0,
						0.0,
						0.0
					]
				},
				"KHR_materials_ior":{
					"ior":1000
				}
			},
			"name":"Material.002",
			"pbrMetallicRoughness":{
				"baseColorTexture":{
					"index":0
				},
				"metallicFactor":0
			}
		},
		{
			"doubleSided":true,
			"name":"Material.003",
			"pbrMetallicRoughness":{
				"baseColorFactor":[
					0,
					0,
					0,
					1
				],
				"metallicFactor":0,
				"roughnessFactor":0.5
			}
		},
		{
			"doubleSided":true,
			"name":"Material.004",
			"pbrMetallicRoughness":{
				"baseColorFactor":[
					0.015759112313389778,
					0,
					0.8011734485626221,
					1
				],
				"metallicFactor":0,
				"roughnessFactor":0.5
			}
		}
	],
	"meshes":[
		{
			"name":"Sphere_Material.002_0",
			"primitives":[
				{
					"attributes":{
						"POSITION":0,
						"NORMAL":1,
						"TEXCOORD_0":2
					},
					"indices":3,
					"material":0
				}
			]
		},
		{
			"name":"Sphere",
			"primitives":[
				{
					"attributes":{
						"POSITION":4,
						"NORMAL":5,
						"TEXCOORD_0":6
					},
					"indices":7,
					"material":1
				}
			]
		},
		{
			"name":"Cube.006",
			"primitives":[
				{
					"attributes":{
						"POSITION":8,
						"NORMAL":9,
						"TEXCOORD_0":10
					},
					"indices":11
				}
			]
		},
		{
			"name":"Text",
			"primitives":[
				{
					"attributes":{
						"POSITION":12,
						"NORMAL":13,
						"TEXCOORD_0":14
					},
					"indices":15,
					"material":2
				}
			]
		}
	],
	"textures":[
		{
			"sampler":0,
			"source":0
		}
	],
	"images":[
		{
			"mimeType":"image/jpeg",
			"name":"Material.002_diffuse",
			"uri":"Material_002_diffuse.jpg"
		}
	],
	"accessors":[
		{
			"bufferView":0,
			"componentType":5126,
			"count":3223,
			"max":[
				0.999999463558197,
				0.9999982118606567,
				1
			],
			"min":[
				-0.9999986290931702,
				-0.999998927116394,
				-1
			],
			"type":"VEC3"
		},
		{
			"bufferView":1,
			"componentType":5126,
			"count":3223,
			"type":"VEC3"
		},
		{
			"bufferView":2,
			"componentType":5126,
			"count":3223,
			"type":"VEC2"
		},
		{
			"bufferView":3,
			"componentType":5123,
			"count":17664,
			"type":"SCALAR"
		},
		{
			"bufferView":4,
			"componentType":5126,
			"count":1984,
			"max":[
				0.9999997019767761,
				1,
				0.9999993443489075
			],
			"min":[
				-0.9999990463256836,
				-1,
				-1
			],
			"type":"VEC3"
		},
		{
			"bufferView":5,
			"componentType":5126,
			"count":1984,
			"type":"VEC3"
		},
		{
			"bufferView":6,
			"componentType":5126,
			"count":1984,
			"type":"VEC2"
		},
		{
			"bufferView":7,
			"componentType":5123,
			"count":2880,
			"type":"SCALAR"
		},
		{
			"bufferView":8,
			"componentType":5126,
			"count":60,
			"max":[
				2.5,
				11,
				1
			],
			"min":[
				-2.5,
				-1,
				-1
			],
			"type":"VEC3"
		},
		{
			"bufferView":9,
			"componentType":5126,
			"count":60,
			"type":"VEC3"
		},
		{
			"bufferView":10,
			"componentType":5126,
			"count":60,
			"type":"VEC2"
		},
		{
			"bufferView":11,
			"componentType":5123,
			"count":120,
			"type":"SCALAR"
		},
		{
			"bufferView":12,
			"componentType":5126,
			"count":1174,
			"max":[
				6.516000747680664,
				0,
				0.23000000417232513
			],
			"min":[
				0.07500000298023224,
				0,
				-0.6914074420928955
			],
			"type":"VEC3"
		},
		{
			"bufferView":13,
			"componentType":5126,
			"count":1174,
			"type":"VEC3"
		},
		{
			"bufferView":14,
			"componentType":5126,
			"count":1174,
			"type":"VEC2"
		},
		{
			"bufferView":15,
			"componentType":5123,
			"count":3444,
			"type":"SCALAR"
		}
	],
	"bufferViews":[
		{
			"buffer":0,
			"byteLength":38676,
			"byteOffset":0,
			"target":34962
		},
		{
			"buffer":0,
			"byteLength":38676,
			"byteOffset":38676,
			"target":34962
		},
		{
			"buffer":0,
			"byteLength":25784,
			"byteOffset":77352,
			"target":34962
		},
		{
			"buffer":0,
			"byteLength":35328,
			"byteOffset":103136,
			"target":34963
		},
		{
			"buffer":0,
			"byteLength":23808,
			"byteOffset":138464,
			"target":34962
		},
		{
			"buffer":0,
			"byteLength":23808,
			"byteOffset":162272,
			"target":34962
		},
		{
			"buffer":0,
			"byteLength":15872,
			"byteOffset":186080,
			"target":34962
		},
		{
			"buffer":0,
			"byteLength":5760,
			"byteOffset":201952,
			"target":34963
		},
		{
			"buffer":0,
			"byteLength":720,
			"byteOffset":207712,
			"target":34962
		},
		{
			"buffer":0,
			"byteLength":720,
			"byteOffset":208432,
			"target":34962
		},
		{
			"buffer":0,
			"byteLength":480,
			"byteOffset":209152,
			"target":34962
		},
		{
			"buffer":0,
			"byteLength":240,
			"byteOffset":209632,
			"target":34963
		},
		{
			"buffer":0,
			"byteLength":14088,
			"byteOffset":209872,
			"target":34962
		},
		{
			"buffer":0,
			"byteLength":14088,
			"byteOffset":223960,
			"target":34962
		},
		{
			"buffer":0,
			"byteLength":9392,
			"byteOffset":238048,
			"target":34962
		},
		{
			"buffer":0,
			"byteLength":6888,
			"byteOffset":247440,
			"target":34963
		}
	],
	"samplers":[
		{
			"magFilter":9729,
			"minFilter":9987
		}
	],
	"buffers":[
		{
			"byteLength":254328,
			"uri":"Ellipsoid.bin"
		}
	]
}
