{
	"asset":{
		"generator":"Khronos glTF Blender I/O v4.1.62",
		"version":"2.0"
	},
	"scene":0,
	"scenes":[
		{
			"name":"Scene",
			"nodes":[
				0,
				1,
				2
			]
		}
	],
	"nodes":[
		{
			"mesh":0,
			"name":"Cube.005",
			"rotation":[
				-0.6460003852844238,
				0.26288971304893494,
				-0.6841675043106079,
				0.21327760815620422
			],
			"scale":[
				1.3772846460342407,
				1.3772848844528198,
				1.3772847652435303
			],
			"translation":[
				-0.5941451787948608,
				89.63849639892578,
				138.3696746826172
			]
		},
		{
			"mesh":1,
			"name":"Text",
			"rotation":[
				0.4558822512626648,
				0.5629794001579285,
				-0.4338267743587494,
				0.5357425212860107
			],
			"scale":[
				26.174240112304688,
				26.174238204956055,
				26.174240112304688
			],
			"translation":[
				-0.7614758014678955,
				96.88240814208984,
				157.69937133789062
			]
		},
		{
			"mesh":2,
			"name":"Earth_Diffuse_6K",
			"scale":[
				40.5101203918457,
				40.5101203918457,
				40.5101203918457
			],
			"translation":[
				-2.5855941772460938,
				62.36723327636719,
				88.76476287841797
			]
		}
	],
	"materials":[
		{
			"doubleSided":true,
			"name":"Material.005",
			"pbrMetallicRoughness":{
				"baseColorFactor":[
					1,
					0.8866127133369446,
					0.9146823883056641,
					1
				],
				"metallicFactor":0,
				"roughnessFactor":0.5
			}
		},
		{
			"doubleSided":true,
			"name":"Material.003",
			"pbrMetallicRoughness":{
				"baseColorFactor":[
					0,
					0,
					0,
					1
				],
				"metallicFactor":0,
				"roughnessFactor":0.5
			}
		},
		{
			"doubleSided":true,
			"name":"Material.004",
			"pbrMetallicRoughness":{
				"baseColorFactor":[
					0.015759112313389778,
					0,
					0.8011734485626221,
					1
				],
				"metallicFactor":0,
				"roughnessFactor":0.5
			}
		},
		{
			"alphaMode":"BLEND",
			"doubleSided":true,
			"name":"Earth_Diffuse_6K",
			"pbrMetallicRoughness":{
				"baseColorTexture":{
					"index":0
				},
				"metallicFactor":0,
				"roughnessFactor":0.5
			}
		}
	],
	"meshes":[
		{
			"name":"Cube.006",
			"primitives":[
				{
					"attributes":{
						"POSITION":0,
						"NORMAL":1,
						"TEXCOORD_0":2
					},
					"indices":3,
					"material":0
				},
				{
					"attributes":{
						"POSITION":4,
						"NORMAL":5,
						"TEXCOORD_0":6
					},
					"indices":7,
					"material":1
				}
			]
		},
		{
			"name":"Text",
			"primitives":[
				{
					"attributes":{
						"POSITION":8,
						"NORMAL":9,
						"TEXCOORD_0":10
					},
					"indices":11,
					"material":2
				}
			]
		},
		{
			"name":"Earth_Diffuse_6K.002",
			"primitives":[
				{
					"attributes":{
						"POSITION":12,
						"NORMAL":13,
						"TEXCOORD_0":14
					},
					"indices":15,
					"material":3
				}
			]
		}
	],
	"textures":[
		{
			"sampler":0,
			"source":0
		}
	],
	"images":[
		{
			"mimeType":"image/png",
			"name":"Earth_Diffuse_6K.jpg",
			"uri":"Earth_Diffuse_6K_jpg.png"
		}
	],
	"accessors":[
		{
			"bufferView":0,
			"componentType":5126,
			"count":59,
			"max":[
				2.5,
				11,
				1
			],
			"min":[
				-2.5,
				-1,
				-1
			],
			"type":"VEC3"
		},
		{
			"bufferView":1,
			"componentType":5126,
			"count":59,
			"type":"VEC3"
		},
		{
			"bufferView":2,
			"componentType":5126,
			"count":59,
			"type":"VEC2"
		},
		{
			"bufferView":3,
			"componentType":5123,
			"count":120,
			"type":"SCALAR"
		},
		{
			"bufferView":4,
			"componentType":5126,
			"count":1984,
			"max":[
				10.859633445739746,
				33.66941833496094,
				12.958206176757812
			],
			"min":[
				-7.580277442932129,
				15.252975463867188,
				-10.395889282226562
			],
			"type":"VEC3"
		},
		{
			"bufferView":5,
			"componentType":5126,
			"count":1984,
			"type":"VEC3"
		},
		{
			"bufferView":6,
			"componentType":5126,
			"count":1984,
			"type":"VEC2"
		},
		{
			"bufferView":7,
			"componentType":5123,
			"count":2880,
			"type":"SCALAR"
		},
		{
			"bufferView":8,
			"componentType":5126,
			"count":1174,
			"max":[
				6.516000747680664,
				0,
				0.23000000417232513
			],
			"min":[
				0.07500000298023224,
				0,
				-0.6914074420928955
			],
			"type":"VEC3"
		},
		{
			"bufferView":9,
			"componentType":5126,
			"count":1174,
			"type":"VEC3"
		},
		{
			"bufferView":10,
			"componentType":5126,
			"count":1174,
			"type":"VEC2"
		},
		{
			"bufferView":11,
			"componentType":5123,
			"count":3444,
			"type":"SCALAR"
		},
		{
			"bufferView":12,
			"componentType":5126,
			"count":8385,
			"max":[
				0.31830891966819763,
				0.31830894947052,
				-9.387732688992401e-07
			],
			"min":[
				-0.31830891966819763,
				-0.31830891966819763,
				-0.6366187930107117
			],
			"type":"VEC3"
		},
		{
			"bufferView":13,
			"componentType":5126,
			"count":8385,
			"type":"VEC3"
		},
		{
			"bufferView":14,
			"componentType":5126,
			"count":8385,
			"type":"VEC2"
		},
		{
			"bufferView":15,
			"componentType":5123,
			"count":49152,
			"type":"SCALAR"
		}
	],
	"bufferViews":[
		{
			"buffer":0,
			"byteLength":708,
			"byteOffset":0,
			"target":34962
		},
		{
			"buffer":0,
			"byteLength":708,
			"byteOffset":708,
			"target":34962
		},
		{
			"buffer":0,
			"byteLength":472,
			"byteOffset":1416,
			"target":34962
		},
		{
			"buffer":0,
			"byteLength":240,
			"byteOffset":1888,
			"target":34963
		},
		{
			"buffer":0,
			"byteLength":23808,
			"byteOffset":2128,
			"target":34962
		},
		{
			"buffer":0,
			"byteLength":23808,
			"byteOffset":25936,
			"target":34962
		},
		{
			"buffer":0,
			"byteLength":15872,
			"byteOffset":49744,
			"target":34962
		},
		{
			"buffer":0,
			"byteLength":5760,
			"byteOffset":65616,
			"target":34963
		},
		{
			"buffer":0,
			"byteLength":14088,
			"byteOffset":71376,
			"target":34962
		},
		{
			"buffer":0,
			"byteLength":14088,
			"byteOffset":85464,
			"target":34962
		},
		{
			"buffer":0,
			"byteLength":9392,
			"byteOffset":99552,
			"target":34962
		},
		{
			"buffer":0,
			"byteLength":6888,
			"byteOffset":108944,
			"target":34963
		},
		{
			"buffer":0,
			"byteLength":100620,
			"byteOffset":115832,
			"target":34962
		},
		{
			"buffer":0,
			"byteLength":100620,
			"byteOffset":216452,
			"target":34962
		},
		{
			"buffer":0,
			"byteLength":67080,
			"byteOffset":317072,
			"target":34962
		},
		{
			"buffer":0,
			"byteLength":98304,
			"byteOffset":384152,
			"target":34963
		}
	],
	"samplers":[
		{
			"magFilter":9729,
			"minFilter":9987,
			"wrapS":33071,
			"wrapT":33071
		}
	],
	"buffers":[
		{
			"byteLength":482456,
			"uri":"Ellipsoid%20Surface.bin"
		}
	]
}
